<?xml version="1.0" encoding="UTF-8" standalone="no"?>
<svg xmlns="http://www.w3.org/2000/svg" viewBox="0 0 120 120" version="1.1">
  <g transform="translate(-38.0,-49.2)" fill="black">
    <g transform="translate(0.1,13.4)">
      <g transform="translate(1.1,1.0)">
        <path fill="#e00"
           d="m 133.2,88.8 c -2.4,-0.3 -5.4,-1.3 -7.7,-2.6 -2.1,-1.2 -5.4,-4.5 -6.7,-6.6 -3.5,-5.9 -3.8,-13.1 -0.9,-19.1 1.9,-4.0 5.3,-7.3 9.1,-9.2 2.5,-1.2 4.5,-1.7 7.7,-1.9 8.8,-0.4 16.9,4.9 19.8,13.3 1.7,5.1 1.3,10.7 -1.2,15.6 -3.8,7.3 -11.9,11.6 -20.1,10.5 z" />
        <path fill="white"
           d="m 139.4,76.8 3.6,3.6 2.0,-2.0 2.0,-2.0 -3.6,-3.6 -3.6,-3.6 3.6,-3.6 3.6,-3.6 -2.0,-2.0 -2.0,-2.0 -3.6,3.6 -3.6,3.6 -3.6,-3.6 -3.6,-3.6 -2.0,2.0 -2.0,2.0 3.6,3.6 3.6,3.6 -3.5,3.5 c -1.9,1.9 -3.5,3.6 -3.5,3.7 0,0.1 0.8,1.1 1.9,2.1 l 1.9,1.9 3.6,-3.6 3.6,-3.6 z" />
      </g>
      <g>
        <path
           d="m 44.1,84.4 -5.1,-4.9 2.2,-2.0 c 12.2,-11.1 27.6,-18.1 44.8,-20.4 4.7,-0.6 15.8,-0.6 20.4,0.0 3.9,0.5 8.7,1.4 9.0,1.7 0.1,0.1 -0.1,0.8 -0.4,1.7 -1.1,2.7 -1.7,5.7 -1.7,9.3 0.0,3.2 -0.0,3.2 -0.5,3.1 -1.9,-0.5 -7.3,-1.5 -9.9,-1.7 -4.3,-0.4 -13.5,-0.1 -17.6,0.5 -12.5,2.1 -23.5,7.2 -32.8,15.2 -1.6,1.3 -3.0,2.5 -3.0,2.5 -0.0,-0.0 -2.3,-2.2 -5.2,-4.9 z" />
        <path
           d="m 59.8,101.1 -5.0,-5.0 0.6,-0.6 c 2.5,-2.7 9.8,-7.7 14.8,-10.1 11.6,-5.5 24.9,-7.2 37.8,-4.6 1.7,0.3 4.4,1.0 6.0,1.5 l 2.9,0.9 1.5,1.8 c 3.2,3.9 7.9,6.8 13.3,8.1 2.3,0.5 3.1,0.8 4.0,1.6 l 1.1,0.9 -5.0,5.2 -5.0,5.2 -1.0,-0.9 c -6.5,-5.6 -13.3,-8.9 -21.5,-10.5 -3.3,-0.6 -4.7,-0.7 -9.1,-0.7 -3.4,0.0 -4.8,0.1 -7.6,0.7 -5.2,1.0 -10.1,2.9 -14.5,5.5 -2.2,1.3 -5.9,4.1 -7.0,5.2 -0.3,0.3 -0.7,0.6 -0.9,0.6 -0.1,0 -2.5,-2.2 -5.3,-5.0 z" />
        <path
           d="m 75.1,117.4 -4.8,-4.8 1.4,-1.2 c 4.6,-4.0 10.5,-6.9 17.1,-8.3 3.9,-0.8 10.5,-0.8 14.4,-0.0 6.5,1.3 12.5,4.3 17.4,8.6 l 0.8,0.7 -4.9,4.9 -4.9,4.9 -1.6,-1.2 c -4.5,-3.6 -10.9,-5.4 -16.6,-4.7 -4.4,0.5 -8.7,2.3 -11.9,5.0 -0.7,0.5 -1.3,1.0 -1.4,1.0 -0.0,0 -2.3,-2.1 -4.9,-4.8 z" />
      </g>
	  <circle r="9.5" cx="96" cy="132" />
    </g>
  </g>
</svg>
