<?xml version="1.0" encoding="UTF-8" standalone="no"?>
<svg xmlns="http://www.w3.org/2000/svg" viewBox="0 0 120 120" version="1.1">
  <g transform="translate(-38.028188,-49.295476)">
    <g transform="translate(0.110237,13.423083)">
      <g transform="translate(1.1535841,1.0322829)">
        <path
           style="fill:#ec0000;fill-opacity:1;stroke-width:0.264583"
           d="m 133.20016,88.87023 c -2.46463,-0.31993 -5.48992,-1.36693 -7.71539,-2.67015 -2.19548,-1.28567 -5.45515,-4.50606 -6.7084,-6.62756 -3.53007,-5.97567 -3.88346,-13.13034 -0.94403,-19.11251 1.98331,-4.036328 5.30525,-7.376717 9.19686,-9.247946 2.58615,-1.24351 4.58981,-1.740742 7.72681,-1.917501 8.84736,-0.498518 16.96675,4.987486 19.82677,13.396287 1.76574,5.1915 1.33887,10.71966 -1.2068,15.62854 -3.82148,7.36905 -11.94818,11.61886 -20.17582,10.55084 z" />
        <path
           style="fill:#ffffff;fill-opacity:1;stroke:#ffffff;stroke-width:0.264583;stroke-opacity:1"
           d="m 139.40622,76.891733 3.66594,3.65892 2.01392,-2.07496 2.01393,-2.07497 -3.62934,-3.64489 -3.62935,-3.64489 3.65097,-3.61228 3.65096,-3.61228 -2.05864,-2.07079 -2.05865,-2.07078 -3.64284,3.63587 -3.64284,3.63587 -3.6408,-3.63383 -3.6408,-3.63384 -2.04709,2.0471 -2.0471,2.0471 3.63376,3.64073 3.63377,3.64074 -3.50212,3.50934 c -1.92617,1.93014 -3.50212,3.62401 -3.50212,3.76416 0,0.14014 0.86094,1.12154 1.9132,2.18086 l 1.9132,1.92606 3.64305,-3.63608 3.64305,-3.63608 z" />
      </g>
      <g>
        <path
           style="fill:#000000;stroke-width:0.264583"
           d="m 44.164948,84.498697 -5.13676,-4.96151 2.22635,-2.0262 c 12.28933,-11.18456 27.63721,-18.19536 44.86829,-20.495529 4.77523,-0.637445 15.876072,-0.633219 20.461172,0.0078 3.94197,0.551093 8.78203,1.480709 9.06811,1.741679 0.11252,0.10264 -0.10241,0.88075 -0.4776,1.72914 -1.19465,2.70131 -1.76366,5.72993 -1.75818,9.3582 0.005,3.22597 -0.002,3.26454 -0.56943,3.10653 -1.90087,-0.5295 -7.36161,-1.50126 -9.92302,-1.76585 -4.333502,-0.44763 -13.591672,-0.17561 -17.653282,0.51869 -12.54966,2.14526 -23.50548,7.22005 -32.85482,15.21853 -1.63425,1.39811 -3.00347,2.53933 -3.04271,2.53604 -0.0392,-0.003 -2.3829,-2.23867 -5.20812,-4.9675 z" />
        <path
           style="fill:#000000;stroke-width:0.264583"
           d="m 59.894018,101.12285 -5.01288,-5.018103 0.64987,-0.6979 c 2.59929,-2.79139 9.8936,-7.77637 14.89483,-10.17924 11.65005,-5.59734 24.92618,-7.21456 37.877962,-4.61408 1.74625,0.35062 4.48471,1.05331 6.08547,1.56154 l 2.91048,0.92405 1.51727,1.85724 c 3.20702,3.92561 7.98121,6.85274 13.31374,8.16286 2.38412,0.58575 3.13508,0.89345 4.06186,1.66431 l 1.13699,0.94572 -5.08532,5.201823 -5.08531,5.20182 -1.09322,-0.9415 c -6.57927,-5.666273 -13.33883,-8.982843 -21.59842,-10.597253 -3.31236,-0.64743 -4.717262,-0.75793 -9.128122,-0.71796 -3.4427,0.0312 -4.87573,0.17012 -7.67292,0.74382 -5.22603,1.07186 -10.19819,2.96816 -14.53359,5.542873 -2.20485,1.30942 -5.92144,4.11211 -7.00993,5.2862 -0.35279,0.38053 -0.77068,0.69188 -0.92865,0.69188 -0.15797,0 -2.54302,-2.25815 -5.30011,-5.0181 z" />
        <path
           style="fill:#000000;stroke-width:0.264583"
           d="m 75.139118,117.42631 -4.84889,-4.85421 1.41199,-1.24802 c 4.62198,-4.08525 10.5136,-6.96677 17.1547,-8.39016 3.90745,-0.83749 10.56425,-0.84201 14.469652,-0.01 6.56223,1.3983 12.57424,4.38164 17.48537,8.67677 l 0.86648,0.7578 -4.92941,4.93727 -4.9294,4.93728 -1.60548,-1.29371 c -4.54451,-3.66201 -10.962232,-5.49412 -16.682152,-4.76236 -4.44713,0.56893 -8.76013,2.38136 -11.96077,5.0262 -0.71695,0.59246 -1.36646,1.07719 -1.44337,1.07719 -0.0769,0 -2.32182,-2.1844 -4.98872,-4.85421 z" />
      </g>
      <ellipse
         style="fill:#000000;fill-opacity:1;stroke:none;stroke-width:3.2754;stroke-linecap:round;stroke-linejoin:round;stroke-miterlimit:3.65;stroke-opacity:1;paint-order:markers fill stroke"
         id="path892"
         cx="96.044289"
         cy="131.77272"
         rx="9.5755634"
         ry="9.67659" />
    </g>
  </g>
</svg>
